<svg xmlns="http://www.w3.org/2000/svg" width="209.93" height="71.752" viewBox="0 0 209.93 71.752"><g transform="translate(-384.07 -5528.377)"><path d="M656.822,818.719c0,3.819-2.668,6.915-5.959,6.915H455.643c-3.295,0-5.969-3.091-5.973-6.915V763.577c0-3.825,2.677-6.923,5.973-6.924H650.855c3.295,0,5.966,3.1,5.966,6.921v55.145Z" transform="translate(-64.215 4773.107)" fill="#fff"/><path d="M650.2,826.362H454.984c-4.059,0-7.35-3.791-7.358-8.472v-54.8c.006-4.682,3.3-8.475,7.358-8.479H650.2c4.06.005,7.35,3.8,7.358,8.479v54.8c0,4.672-3.3,8.472-7.356,8.472Z" transform="translate(-63.556 4773.767)" fill="#a6a5a5"/><path d="M656.822,818.719c0,3.819-2.668,6.915-5.959,6.915H455.643c-3.295,0-5.969-3.091-5.973-6.915V763.577c0-3.825,2.677-6.923,5.973-6.924H650.855c3.295,0,5.966,3.1,5.966,6.921v55.145Z" transform="translate(-64.215 4773.107)" fill="#010101"/><path d="M696.841,754.61H592.278l40.955,71.752h63.607c4.059,0,7.35-3.8,7.358-8.476v-54.8C704.191,758.408,700.9,754.615,696.841,754.61Z" transform="translate(-110.198 4773.767)" fill="#fff" opacity="0.1"/><g transform="translate(406.063 5543.201)"><path d="M506.465,791.514a8.817,8.817,0,0,1,4.2-7.4,9.036,9.036,0,0,0-7.115-3.846c-2.993-.315-5.9,1.79-7.421,1.79-1.555,0-3.9-1.76-6.434-1.708a9.473,9.473,0,0,0-7.973,4.862c-3.448,5.968-.876,14.738,2.427,19.562,1.653,2.365,3.584,5,6.112,4.908,2.472-.1,3.4-1.575,6.38-1.575,2.957,0,3.824,1.575,6.4,1.515,2.653-.041,4.324-2.373,5.919-4.757a19.483,19.483,0,0,0,2.707-5.511,8.533,8.533,0,0,1-5.2-7.841Zm-4.87-14.419a8.677,8.677,0,0,0,1.987-6.221,8.847,8.847,0,0,0-5.719,2.958,8.259,8.259,0,0,0-2.039,5.991,7.306,7.306,0,0,0,5.77-2.728Z" transform="translate(-480.085 -770.874)" fill="#fff"/><g transform="translate(45.1 16.165)"><path d="M563.743,815.278h-3.456l-1.893-5.946h-6.58l-1.8,5.946h-3.364l6.52-20.245h4.027l6.549,20.245Zm-5.919-8.441-1.712-5.287q-.271-.81-1.021-3.813h-.061q-.3,1.291-.961,3.813l-1.683,5.287Zm22.655.963a8.267,8.267,0,0,1-2.024,5.886,5.938,5.938,0,0,1-4.5,1.923,4.505,4.505,0,0,1-4.169-2.07v7.66H566.54V805.478q0-2.34-.121-4.8h2.853l.181,2.314h.061a5.773,5.773,0,0,1,9.238-.573,8.073,8.073,0,0,1,1.726,5.379Zm-3.305.119a6.017,6.017,0,0,0-.962-3.516,3.323,3.323,0,0,0-2.824-1.44,3.375,3.375,0,0,0-2.178.8,3.691,3.691,0,0,0-1.276,2.089,4.228,4.228,0,0,0-.15.987v2.436a3.9,3.9,0,0,0,.976,2.689,3.243,3.243,0,0,0,2.538,1.1,3.324,3.324,0,0,0,2.853-1.411A6.208,6.208,0,0,0,577.174,807.918Zm20.1-.119a8.268,8.268,0,0,1-2.024,5.886,5.941,5.941,0,0,1-4.5,1.923,4.505,4.505,0,0,1-4.169-2.07v7.66h-3.244V805.478q0-2.34-.121-4.8h2.853l.182,2.314h.06a5.774,5.774,0,0,1,9.24-.573,8.081,8.081,0,0,1,1.726,5.379Zm-3.306.119A6.017,6.017,0,0,0,593,804.4a3.318,3.318,0,0,0-2.821-1.44,3.387,3.387,0,0,0-2.18.8,3.689,3.689,0,0,0-1.275,2.089,4.331,4.331,0,0,0-.152.987v2.436a3.916,3.916,0,0,0,.976,2.689,3.249,3.249,0,0,0,2.541,1.1,3.321,3.321,0,0,0,2.853-1.411A6.209,6.209,0,0,0,593.967,807.918Zm22.084,1.681a5.407,5.407,0,0,1-1.8,4.206,7.981,7.981,0,0,1-5.516,1.772,9.628,9.628,0,0,1-5.244-1.262l.751-2.7a9.03,9.03,0,0,0,4.687,1.262,4.424,4.424,0,0,0,2.853-.826,2.7,2.7,0,0,0,1.024-2.206,2.828,2.828,0,0,0-.843-2.073,7.822,7.822,0,0,0-2.794-1.56q-5.318-1.984-5.32-5.8a5.12,5.12,0,0,1,1.878-4.085,7.427,7.427,0,0,1,4.973-1.593,9.832,9.832,0,0,1,4.6.961l-.814,2.645a8.04,8.04,0,0,0-3.891-.931,3.958,3.958,0,0,0-2.684.841,2.406,2.406,0,0,0-.814,1.835,2.478,2.478,0,0,0,.933,1.982,10.5,10.5,0,0,0,2.943,1.561,9.976,9.976,0,0,1,3.846,2.461,5.131,5.131,0,0,1,1.236,3.511Zm10.753-6.486h-3.576V810.2q0,2.7,1.893,2.7a5.683,5.683,0,0,0,1.441-.151l.089,2.463a7.339,7.339,0,0,1-2.523.359,3.89,3.89,0,0,1-3.006-1.173,5.751,5.751,0,0,1-1.082-3.935v-7.359h-2.13v-2.434h2.13V798l3.187-.961v3.634H626.8v2.44Zm16.1,4.745a8.006,8.006,0,0,1-1.923,5.527,6.858,6.858,0,0,1-5.347,2.223,6.536,6.536,0,0,1-5.124-2.13A7.761,7.761,0,0,1,628.6,808.1a7.941,7.941,0,0,1,1.968-5.556,6.819,6.819,0,0,1,5.3-2.163,6.672,6.672,0,0,1,5.166,2.133,7.663,7.663,0,0,1,1.864,5.343Zm-3.363.075a6.541,6.541,0,0,0-.869-3.444,3.212,3.212,0,0,0-2.915-1.739,3.258,3.258,0,0,0-2.975,1.739,6.643,6.643,0,0,0-.871,3.505,6.518,6.518,0,0,0,.871,3.446,3.327,3.327,0,0,0,5.863-.029,6.558,6.558,0,0,0,.9-3.478Zm13.913-4.4a5.7,5.7,0,0,0-1.023-.09,3.063,3.063,0,0,0-2.644,1.294,4.869,4.869,0,0,0-.81,2.883v7.659h-3.244v-10q.005-2.3-.094-4.6h2.826l.119,2.794h.089a5.01,5.01,0,0,1,1.622-2.314,3.918,3.918,0,0,1,2.345-.782,5.217,5.217,0,0,1,.811.059l0,3.094Zm14.509,3.756a7.655,7.655,0,0,1-.119,1.472h-9.733a4.234,4.234,0,0,0,1.412,3.307,4.832,4.832,0,0,0,3.184,1.019,10.774,10.774,0,0,0,3.938-.689l.508,2.25a12.178,12.178,0,0,1-4.9.9,7.1,7.1,0,0,1-5.335-2,7.379,7.379,0,0,1-1.937-5.361,8.359,8.359,0,0,1,1.8-5.495,6.218,6.218,0,0,1,5.105-2.341,5.442,5.442,0,0,1,4.779,2.341,7.881,7.881,0,0,1,1.287,4.591Zm-3.094-.841a4.389,4.389,0,0,0-.63-2.493,2.832,2.832,0,0,0-2.583-1.354,3.074,3.074,0,0,0-2.582,1.322,4.841,4.841,0,0,0-.961,2.522l6.757,0Z" transform="translate(-546.647 -794.733)" fill="#fff"/></g><g transform="translate(46.999 0.511)"><path d="M551.783,782.183a20.726,20.726,0,0,1-2.333-.119v-9.788a17.646,17.646,0,0,1,2.746-.207c3.72,0,5.434,1.83,5.434,4.813C557.63,780.325,555.606,782.183,551.783,782.183Zm.545-8.858a6.485,6.485,0,0,0-1.285.1v7.44a8.363,8.363,0,0,0,1.077.045c2.438,0,3.825-1.388,3.825-3.986A3.247,3.247,0,0,0,552.328,773.325Zm10.642,8.933a3.415,3.415,0,0,1-3.456-3.691,3.494,3.494,0,0,1,3.574-3.794,3.388,3.388,0,0,1,3.456,3.677,3.515,3.515,0,0,1-3.574,3.807Zm.061-6.319c-1.152,0-1.89,1.077-1.89,2.583,0,1.477.753,2.555,1.875,2.555s1.875-1.152,1.875-2.585c0-1.46-.738-2.552-1.859-2.552Zm15.471-1.018-2.244,7.174h-1.463l-.93-3.115a23.683,23.683,0,0,1-.577-2.317h-.03a15.56,15.56,0,0,1-.575,2.317l-.989,3.115h-1.477l-2.113-7.174h1.639l.812,3.41q.288,1.219.487,2.3h.03c.117-.6.309-1.358.59-2.288l1.02-3.424h1.3l.976,3.351c.236.812.428,1.61.577,2.363h.043a20.65,20.65,0,0,1,.487-2.363l.872-3.351Zm8.263,7.174h-1.595v-4.12c0-1.269-.486-1.9-1.447-1.9a1.656,1.656,0,0,0-1.6,1.757V782.1h-1.595v-5.124c0-.634-.015-1.315-.059-2.052h1.4l.075,1.108H582a2.577,2.577,0,0,1,2.275-1.253c1.507,0,2.5,1.151,2.5,3.026v4.3Zm4.4,0h-1.6V771.629h1.6Zm5.814.163a3.415,3.415,0,0,1-3.455-3.691,3.494,3.494,0,0,1,3.573-3.794,3.387,3.387,0,0,1,3.455,3.677,3.514,3.514,0,0,1-3.573,3.807Zm.06-6.319c-1.153,0-1.89,1.077-1.89,2.583,0,1.477.755,2.555,1.873,2.555s1.875-1.152,1.875-2.585c0-1.46-.735-2.552-1.858-2.552Zm9.8,6.156-.116-.826h-.043a2.449,2.449,0,0,1-2.1.988,2.086,2.086,0,0,1-2.2-2.111c0-1.77,1.535-2.686,4.194-2.686v-.132c0-.945-.5-1.418-1.49-1.418a3.361,3.361,0,0,0-1.875.533l-.324-1.048a4.586,4.586,0,0,1,2.464-.621c1.875,0,2.821.989,2.821,2.968v2.642a10.892,10.892,0,0,0,.1,1.713Zm-.219-3.573c-1.772,0-2.66.429-2.66,1.447a1.017,1.017,0,0,0,1.094,1.121,1.527,1.527,0,0,0,1.566-1.46Zm9.3,3.573-.075-1.152H615.8a2.4,2.4,0,0,1-2.3,1.314c-1.73,0-3.011-1.521-3.011-3.661,0-2.244,1.328-3.824,3.142-3.824a2.155,2.155,0,0,1,2.024.975h.033v-4.118h1.6v8.533c0,.694.017,1.344.06,1.934Zm-.236-4.221a1.736,1.736,0,0,0-1.68-1.861c-1.182,0-1.905,1.048-1.905,2.524,0,1.447.751,2.437,1.873,2.437a1.79,1.79,0,0,0,1.712-1.9v-1.2Zm11.716,4.384a3.415,3.415,0,0,1-3.454-3.691,3.494,3.494,0,0,1,3.573-3.794,3.387,3.387,0,0,1,3.455,3.677,3.513,3.513,0,0,1-3.575,3.807Zm.06-6.319c-1.151,0-1.888,1.077-1.888,2.583,0,1.477.753,2.555,1.873,2.555s1.874-1.152,1.874-2.585c0-1.46-.735-2.552-1.859-2.552Zm12.091,6.156h-1.6v-4.12c0-1.269-.487-1.9-1.447-1.9a1.655,1.655,0,0,0-1.594,1.757V782.1h-1.6v-5.124c0-.634-.016-1.315-.06-2.052h1.4l.075,1.108h.044a2.576,2.576,0,0,1,2.273-1.255c1.506,0,2.5,1.151,2.5,3.025Zm10.73-5.979h-1.755V779.6c0,.887.308,1.329.928,1.329a3.145,3.145,0,0,0,.708-.075l.044,1.211a3.523,3.523,0,0,1-1.237.178c-1.257,0-2.009-.694-2.009-2.51v-3.618h-1.047v-1.2h1.047v-1.314l1.566-.474v1.786h1.755v1.2Zm8.442,5.979h-1.594v-4.089c0-1.284-.485-1.934-1.447-1.934a1.564,1.564,0,0,0-1.6,1.7V782.1h-1.594V771.629h1.594v4.31h.032a2.42,2.42,0,0,1,2.157-1.167c1.519,0,2.447,1.18,2.447,3.056V782.1Zm8.649-3.2h-4.786a2.059,2.059,0,0,0,2.261,2.125,5.4,5.4,0,0,0,1.934-.339l.248,1.107a5.989,5.989,0,0,1-2.407.442,3.33,3.33,0,0,1-3.573-3.615c0-2.2,1.36-3.854,3.393-3.854,1.833,0,2.984,1.359,2.984,3.411a3.077,3.077,0,0,1-.055.723Zm-1.462-1.137c0-1.107-.558-1.889-1.578-1.889a1.891,1.891,0,0,0-1.744,1.889Z" transform="translate(-549.45 -771.629)" fill="#fff"/></g></g></g></svg>