<svg xmlns="http://www.w3.org/2000/svg" xmlns:xlink="http://www.w3.org/1999/xlink" width="209.93" height="71.752" viewBox="0 0 209.93 71.752"><defs><linearGradient id="a" x1="0.5" y1="-0.003" x2="0.5" y2="0.993" gradientUnits="objectBoundingBox"><stop offset="0" stop-color="#267caf"/><stop offset="0.286" stop-color="#4a92b4"/><stop offset="0.767" stop-color="#79bcba"/><stop offset="1" stop-color="#88cebc"/></linearGradient><linearGradient id="b" x1="0.638" y1="0.141" x2="0.338" y2="0.948" gradientUnits="objectBoundingBox"><stop offset="0" stop-color="#f48879"/><stop offset="0.119" stop-color="#f5907a"/><stop offset="0.713" stop-color="#fbb777"/><stop offset="1" stop-color="#fdc874"/></linearGradient><linearGradient id="c" x1="0.866" y1="0.172" x2="0.048" y2="1.029" gradientUnits="objectBoundingBox"><stop offset="0" stop-color="#eb413d"/><stop offset="0.167" stop-color="#d94452"/><stop offset="0.575" stop-color="#af487a"/><stop offset="0.862" stop-color="#954b92"/><stop offset="1" stop-color="#894a9c"/></linearGradient><linearGradient id="d" x1="0.106" y1="0.073" x2="0.888" y2="0.85" gradientUnits="objectBoundingBox"><stop offset="0" stop-color="#54c0ac"/><stop offset="1" stop-color="#dde79a"/></linearGradient></defs><g transform="translate(-158.856 -5528.377)"><path d="M324.428,810.126a5.959,5.959,0,0,1-5.959,5.958H123.249a5.966,5.966,0,0,1-5.973-5.958V762.618a5.973,5.973,0,0,1,5.973-5.965H318.461a5.964,5.964,0,0,1,5.965,5.963v0l0,47.508Z" transform="translate(42.965 4773.107)" fill="#fff"/><path d="M317.8,826.362H122.59c-4.058,0-7.349-3.791-7.358-8.472v-54.8c.006-4.682,3.3-8.475,7.358-8.479H317.8c4.06.005,7.35,3.8,7.358,8.479v54.8c0,4.672-3.3,8.472-7.356,8.472Z" transform="translate(43.624 4773.767)" fill="#a6a5a5"/><path d="M324.428,818.719c0,3.819-2.668,6.915-5.959,6.915H123.249c-3.294,0-5.969-3.091-5.973-6.915V763.577c0-3.825,2.677-6.923,5.973-6.924H318.461c3.295,0,5.965,3.1,5.965,6.921v0l0,55.143Z" transform="translate(42.965 4773.107)" fill="#010101"/><path d="M364.447,754.61H259.884l40.955,71.752h63.607c4.059,0,7.349-3.8,7.358-8.476v-54.8C371.8,758.408,368.507,754.615,364.447,754.61Z" transform="translate(-3.019 4773.767)" fill="#fff" opacity="0.1"/><g transform="translate(180.842 5544.304)"><path d="M220.371,779.974a4.141,4.141,0,0,1-1.064,3.041,4.73,4.73,0,1,1-3.344-8.059,4.046,4.046,0,0,1,1.824.457,3.307,3.307,0,0,1,1.369,1.064l-.76.76a2.836,2.836,0,0,0-2.432-1.064,3.026,3.026,0,0,0-2.433,1.064,3.671,3.671,0,0,0,0,5.17,3.914,3.914,0,0,0,2.433,1.064,3.334,3.334,0,0,0,2.584-1.064,2.516,2.516,0,0,0,.76-1.825h-3.344v-1.216h4.409v.609Zm6.994-3.8H223.26v2.888h3.8v1.064h-3.8v2.889h4.105v1.216h-5.322v-9.123h5.322Zm5.017,8.058h-1.216v-8.058h-2.585v-1.064h6.386v1.064h-2.585Zm6.994,0v-9.123h1.216v9.123Zm6.386,0h-1.217v-8.058h-2.585v-1.064h6.234v1.064H245.61v8.058Zm14.444-1.216a4.774,4.774,0,1,1,1.368-3.345A4.472,4.472,0,0,1,260.207,783.015Zm-5.778-.76a3.591,3.591,0,0,0,2.433,1.064,3.024,3.024,0,0,0,2.432-1.064,3.668,3.668,0,0,0,1.064-2.585,3.133,3.133,0,0,0-1.064-2.585,3.586,3.586,0,0,0-2.432-1.064,3.027,3.027,0,0,0-2.433,1.064,3.67,3.67,0,0,0-1.064,2.585A3.132,3.132,0,0,0,254.428,782.255Zm8.819,1.976v-9.123h1.368l4.41,7.146v-7.146h1.216v9.123h-1.216l-4.713-7.45v7.45Z" transform="translate(-168.178 -773.292)" fill="#fff"/><path d="M251.627,802.073a6.4,6.4,0,0,0-6.538,6.538,6.489,6.489,0,0,0,6.538,6.538,6.4,6.4,0,0,0,6.538-6.538A6.308,6.308,0,0,0,251.627,802.073Zm0,10.339a3.966,3.966,0,0,1,0-7.906,3.683,3.683,0,0,1,3.649,3.953A3.774,3.774,0,0,1,251.627,812.412Zm-14.141-10.339a6.4,6.4,0,0,0-6.538,6.538,6.489,6.489,0,0,0,6.538,6.538,6.4,6.4,0,0,0,6.538-6.538A6.308,6.308,0,0,0,237.487,802.073Zm0,10.339a3.966,3.966,0,0,1,0-7.906,3.683,3.683,0,0,1,3.649,3.953A3.775,3.775,0,0,1,237.487,812.412ZM220.61,804.05v2.737h6.538a5.751,5.751,0,0,1-1.52,3.5,6.73,6.73,0,0,1-5.017,1.977,7.079,7.079,0,0,1-7.146-7.3,7.172,7.172,0,0,1,7.146-7.3,7.538,7.538,0,0,1,5.017,1.977l1.976-1.977a9.743,9.743,0,0,0-6.842-2.737,10.036,10.036,0,1,0,0,20.07,8.749,8.749,0,0,0,6.994-2.889,9.154,9.154,0,0,0,2.433-6.386,5.684,5.684,0,0,0-.152-1.672Zm69.028,2.128a5.906,5.906,0,0,0-5.473-4.1c-3.345,0-6.082,2.584-6.082,6.538a6.362,6.362,0,0,0,6.386,6.538,6.239,6.239,0,0,0,5.322-2.888l-2.129-1.521a3.705,3.705,0,0,1-3.193,1.825,3.3,3.3,0,0,1-3.193-1.976l8.667-3.649-.3-.76Zm-8.818,2.129a3.694,3.694,0,0,1,3.345-3.8,2.689,2.689,0,0,1,2.432,1.369l-5.777,2.432Zm-7.146,6.234h2.889V795.535h-2.889Zm-4.561-11.1a5.005,5.005,0,0,0-3.5-1.52,6.533,6.533,0,0,0-6.234,6.538,6.3,6.3,0,0,0,6.234,6.386,4.366,4.366,0,0,0,3.345-1.52h.152v.913c0,2.432-1.369,3.8-3.5,3.8a3.378,3.378,0,0,1-3.193-2.281l-2.432,1.064a6.273,6.273,0,0,0,5.777,3.8c3.345,0,6.082-1.977,6.082-6.69V802.377h-2.737v1.064Zm-3.345,8.971a3.966,3.966,0,0,1,0-7.906,3.983,3.983,0,0,1,0,7.906Zm37.1-16.877h-6.842v19.006h2.889v-7.146h3.953a5.937,5.937,0,1,0,0-11.86Zm.152,9.123h-4.105V798.12h4.105a3.34,3.34,0,0,1,3.345,3.193,3.48,3.48,0,0,1-3.345,3.344Zm17.485-2.737c-2.129,0-4.257.913-5.017,2.889l2.585,1.064a2.685,2.685,0,0,1,2.584-1.369,2.857,2.857,0,0,1,3.041,2.432v.152a6.029,6.029,0,0,0-2.888-.76c-2.737,0-5.474,1.52-5.474,4.257a4.454,4.454,0,0,0,4.714,4.257,4.278,4.278,0,0,0,3.649-1.824h.152v1.52h2.737v-7.3a5.754,5.754,0,0,0-6.082-5.321Zm-.3,10.491c-.912,0-2.281-.456-2.281-1.672,0-1.521,1.673-1.977,3.041-1.977a5.879,5.879,0,0,1,2.585.608A3.541,3.541,0,0,1,320.2,812.412Zm15.965-10.035-3.193,8.211h-.152l-3.345-8.211h-3.041l5.017,11.556-2.889,6.386h2.889l7.755-17.942ZM310.62,814.541h2.889V795.535H310.62Z" transform="translate(-167.96 -779.732)" fill="#fff"/><g transform="translate(0)"><path d="M148.288,773.238a2.975,2.975,0,0,0-.608,2.129v33.6a3.011,3.011,0,0,0,.76,2.129l.152.152L167.446,792.4v-.3Z" transform="translate(-147.68 -772.738)" fill="url(#a)"/><path d="M182.862,804.788l-6.234-6.234V798.1l6.234-6.233.152.152,7.45,4.257c2.129,1.217,2.129,3.193,0,4.41Z" transform="translate(-157.014 -778.744)" fill="url(#b)"/><path d="M173.969,807.675l-6.386-6.386-19.006,19.005c.76.76,1.825.76,3.193.152l22.2-12.771" transform="translate(-147.969 -781.783)" fill="url(#c)"/><path d="M173.969,785.62,151.77,773c-1.369-.76-2.433-.608-3.193.153l19.006,18.853,6.386-6.386Z" transform="translate(-147.969 -772.501)" fill="url(#d)"/></g></g></g></svg>