<svg xmlns="http://www.w3.org/2000/svg" width="96" height="83" viewBox="0 0 96 83"><g transform="translate(-2341.294 15769)"><path d="M15,0H81A15,15,0,0,1,96,15V68A15,15,0,0,1,81,83H15A15,15,0,0,1,0,68V15A15,15,0,0,1,15,0Z" transform="translate(2341.294 -15769)" fill="#faaf19"/><circle cx="11.5" cy="11.5" r="11.5" transform="translate(2376 -15741)" fill="none" stroke="#fff" stroke-width="2.5"/><path d="M13.034,8A5.034,5.034,0,0,0,8,13.034" transform="translate(2374.581 -15742.713)" fill="none" stroke="#fff" stroke-linecap="round" stroke-width="2.5"/><path d="M22.034,22.034,17,17" transform="translate(2380.684 -15736.609)" fill="none" stroke="#fff" stroke-linecap="round" stroke-width="2.5"/></g></svg>