<svg width="49" height="91" xmlns="http://www.w3.org/2000/svg" xmlns:xlink="http://www.w3.org/1999/xlink" xmlns:svgjs="http://svgjs.com/svgjs" viewBox="46 586 49 91"><svg width="7" height="7" xmlns="http://www.w3.org/2000/svg" xmlns:xlink="http://www.w3.org/1999/xlink" xmlns:svgjs="http://svgjs.com/svgjs" fill="#b7b7b7" x="46" y="586"><svg xmlns="http://www.w3.org/2000/svg" xmlns:xlink="http://www.w3.org/1999/xlink" width="7" height="7"><path paint-order="stroke fill markers" fill-rule="evenodd" d="M3.5 7A3.497 3.497 0 0 1 0 3.5C0 1.564 1.564 0 3.5 0 5.435 0 7 1.564 7 3.5 7 5.435 5.435 7 3.5 7z"/></svg></svg><svg width="7" height="7" xmlns="http://www.w3.org/2000/svg" xmlns:xlink="http://www.w3.org/1999/xlink" xmlns:svgjs="http://svgjs.com/svgjs" fill="#b7b7b7" x="46" y="607"><svg xmlns="http://www.w3.org/2000/svg" xmlns:xlink="http://www.w3.org/1999/xlink" width="7" height="7"><path paint-order="stroke fill markers" fill-rule="evenodd" d="M3.5 7A3.497 3.497 0 0 1 0 3.5C0 1.564 1.564 0 3.5 0 5.435 0 7 1.564 7 3.5 7 5.435 5.435 7 3.5 7z"/></svg></svg><svg width="7" height="7" xmlns="http://www.w3.org/2000/svg" xmlns:xlink="http://www.w3.org/1999/xlink" xmlns:svgjs="http://svgjs.com/svgjs" fill="#b7b7b7" x="46" y="628"><svg xmlns="http://www.w3.org/2000/svg" xmlns:xlink="http://www.w3.org/1999/xlink" width="7" height="7"><path paint-order="stroke fill markers" fill-rule="evenodd" d="M3.5 7A3.497 3.497 0 0 1 0 3.5C0 1.564 1.564 0 3.5 0 5.435 0 7 1.564 7 3.5 7 5.435 5.435 7 3.5 7z"/></svg></svg><svg width="7" height="7" xmlns="http://www.w3.org/2000/svg" xmlns:xlink="http://www.w3.org/1999/xlink" xmlns:svgjs="http://svgjs.com/svgjs" fill="#b7b7b7" x="46" y="649"><svg xmlns="http://www.w3.org/2000/svg" xmlns:xlink="http://www.w3.org/1999/xlink" width="7" height="7"><path paint-order="stroke fill markers" fill-rule="evenodd" d="M3.5 7A3.497 3.497 0 0 1 0 3.5C0 1.564 1.564 0 3.5 0 5.435 0 7 1.564 7 3.5 7 5.435 5.435 7 3.5 7z"/></svg></svg><svg width="7" height="7" xmlns="http://www.w3.org/2000/svg" xmlns:xlink="http://www.w3.org/1999/xlink" xmlns:svgjs="http://svgjs.com/svgjs" fill="#b7b7b7" x="46" y="670"><svg xmlns="http://www.w3.org/2000/svg" xmlns:xlink="http://www.w3.org/1999/xlink" width="7" height="7"><path paint-order="stroke fill markers" fill-rule="evenodd" d="M3.5 7A3.497 3.497 0 0 1 0 3.5C0 1.564 1.564 0 3.5 0 5.435 0 7 1.564 7 3.5 7 5.435 5.435 7 3.5 7z"/></svg></svg><svg width="7" height="7" xmlns="http://www.w3.org/2000/svg" xmlns:xlink="http://www.w3.org/1999/xlink" xmlns:svgjs="http://svgjs.com/svgjs" fill="#b7b7b7" x="67" y="670"><svg xmlns="http://www.w3.org/2000/svg" xmlns:xlink="http://www.w3.org/1999/xlink" width="7" height="7"><path paint-order="stroke fill markers" fill-rule="evenodd" d="M3.5 7A3.497 3.497 0 0 1 0 3.5C0 1.564 1.564 0 3.5 0 5.435 0 7 1.564 7 3.5 7 5.435 5.435 7 3.5 7z"/></svg></svg><svg width="7" height="7" xmlns="http://www.w3.org/2000/svg" xmlns:xlink="http://www.w3.org/1999/xlink" xmlns:svgjs="http://svgjs.com/svgjs" fill="#b7b7b7" x="67" y="649"><svg xmlns="http://www.w3.org/2000/svg" xmlns:xlink="http://www.w3.org/1999/xlink" width="7" height="7"><path paint-order="stroke fill markers" fill-rule="evenodd" d="M3.5 7A3.497 3.497 0 0 1 0 3.5C0 1.564 1.564 0 3.5 0 5.435 0 7 1.564 7 3.5 7 5.435 5.435 7 3.5 7z"/></svg></svg><svg width="7" height="7" xmlns="http://www.w3.org/2000/svg" xmlns:xlink="http://www.w3.org/1999/xlink" xmlns:svgjs="http://svgjs.com/svgjs" fill="#b7b7b7" x="67" y="628"><svg xmlns="http://www.w3.org/2000/svg" xmlns:xlink="http://www.w3.org/1999/xlink" width="7" height="7"><path paint-order="stroke fill markers" fill-rule="evenodd" d="M3.5 7A3.497 3.497 0 0 1 0 3.5C0 1.564 1.564 0 3.5 0 5.435 0 7 1.564 7 3.5 7 5.435 5.435 7 3.5 7z"/></svg></svg><svg width="7" height="7" xmlns="http://www.w3.org/2000/svg" xmlns:xlink="http://www.w3.org/1999/xlink" xmlns:svgjs="http://svgjs.com/svgjs" fill="#b7b7b7" x="67" y="607"><svg xmlns="http://www.w3.org/2000/svg" xmlns:xlink="http://www.w3.org/1999/xlink" width="7" height="7"><path paint-order="stroke fill markers" fill-rule="evenodd" d="M3.5 7A3.497 3.497 0 0 1 0 3.5C0 1.564 1.564 0 3.5 0 5.435 0 7 1.564 7 3.5 7 5.435 5.435 7 3.5 7z"/></svg></svg><svg width="7" height="7" xmlns="http://www.w3.org/2000/svg" xmlns:xlink="http://www.w3.org/1999/xlink" xmlns:svgjs="http://svgjs.com/svgjs" fill="#b7b7b7" x="67" y="586"><svg xmlns="http://www.w3.org/2000/svg" xmlns:xlink="http://www.w3.org/1999/xlink" width="7" height="7"><path paint-order="stroke fill markers" fill-rule="evenodd" d="M3.5 7A3.497 3.497 0 0 1 0 3.5C0 1.564 1.564 0 3.5 0 5.435 0 7 1.564 7 3.5 7 5.435 5.435 7 3.5 7z"/></svg></svg><svg width="7" height="7" xmlns="http://www.w3.org/2000/svg" xmlns:xlink="http://www.w3.org/1999/xlink" xmlns:svgjs="http://svgjs.com/svgjs" fill="#b7b7b7" x="88" y="586"><svg xmlns="http://www.w3.org/2000/svg" xmlns:xlink="http://www.w3.org/1999/xlink" width="7" height="7"><path paint-order="stroke fill markers" fill-rule="evenodd" d="M3.5 7A3.497 3.497 0 0 1 0 3.5C0 1.564 1.564 0 3.5 0 5.435 0 7 1.564 7 3.5 7 5.435 5.435 7 3.5 7z"/></svg></svg><svg width="7" height="7" xmlns="http://www.w3.org/2000/svg" xmlns:xlink="http://www.w3.org/1999/xlink" xmlns:svgjs="http://svgjs.com/svgjs" fill="#b7b7b7" x="88" y="607"><svg xmlns="http://www.w3.org/2000/svg" xmlns:xlink="http://www.w3.org/1999/xlink" width="7" height="7"><path paint-order="stroke fill markers" fill-rule="evenodd" d="M3.5 7A3.497 3.497 0 0 1 0 3.5C0 1.564 1.564 0 3.5 0 5.435 0 7 1.564 7 3.5 7 5.435 5.435 7 3.5 7z"/></svg></svg><svg width="7" height="7" xmlns="http://www.w3.org/2000/svg" xmlns:xlink="http://www.w3.org/1999/xlink" xmlns:svgjs="http://svgjs.com/svgjs" fill="#b7b7b7" x="88" y="628"><svg xmlns="http://www.w3.org/2000/svg" xmlns:xlink="http://www.w3.org/1999/xlink" width="7" height="7"><path paint-order="stroke fill markers" fill-rule="evenodd" d="M3.5 7A3.497 3.497 0 0 1 0 3.5C0 1.564 1.564 0 3.5 0 5.435 0 7 1.564 7 3.5 7 5.435 5.435 7 3.5 7z"/></svg></svg><svg width="7" height="7" xmlns="http://www.w3.org/2000/svg" xmlns:xlink="http://www.w3.org/1999/xlink" xmlns:svgjs="http://svgjs.com/svgjs" fill="#b7b7b7" x="88" y="649"><svg xmlns="http://www.w3.org/2000/svg" xmlns:xlink="http://www.w3.org/1999/xlink" width="7" height="7"><path paint-order="stroke fill markers" fill-rule="evenodd" d="M3.5 7A3.497 3.497 0 0 1 0 3.5C0 1.564 1.564 0 3.5 0 5.435 0 7 1.564 7 3.5 7 5.435 5.435 7 3.5 7z"/></svg></svg><svg width="7" height="7" xmlns="http://www.w3.org/2000/svg" xmlns:xlink="http://www.w3.org/1999/xlink" xmlns:svgjs="http://svgjs.com/svgjs" fill="#b7b7b7" x="88" y="670"><svg xmlns="http://www.w3.org/2000/svg" width="7" height="7"><path paint-order="stroke fill markers" fill-rule="evenodd" d="M3.5 7A3.497 3.497 0 0 1 0 3.5C0 1.564 1.564 0 3.5 0 5.435 0 7 1.564 7 3.5 7 5.435 5.435 7 3.5 7z"/></svg></svg></svg>