<svg xmlns="http://www.w3.org/2000/svg" width="18.167" height="17.594" viewBox="0 0 18.167 17.594"><path d="M6.3,2.684C6.979.989,7.319.141,7.872.023a1.059,1.059,0,0,1,.441,0c.553.118.893.965,1.573,2.661a4.7,4.7,0,0,0,.942,1.775,2.119,2.119,0,0,0,.329.245,4.753,4.753,0,0,0,1.985.392c1.768.158,2.652.238,2.922.742a1.06,1.06,0,0,1,.113.334c.089.565-.56,1.156-1.86,2.338l-.361.328a4.681,4.681,0,0,0-1.087,1.174,2.119,2.119,0,0,0-.209.66,4.687,4.687,0,0,0,.212,1.586l.064.287c.319,1.438.479,2.157.28,2.511a1.059,1.059,0,0,1-.872.538c-.405.019-.976-.446-2.118-1.377a4.987,4.987,0,0,0-1.546-1.039,2.118,2.118,0,0,0-1.168,0,4.987,4.987,0,0,0-1.546,1.039c-1.142.931-1.713,1.4-2.118,1.377a1.059,1.059,0,0,1-.872-.538c-.2-.354-.04-1.073.279-2.511l.064-.287a4.682,4.682,0,0,0,.212-1.586,2.119,2.119,0,0,0-.209-.66A4.682,4.682,0,0,0,2.229,8.839L1.868,8.51C.569,7.328-.081,6.737.008,6.172a1.059,1.059,0,0,1,.112-.334c.27-.5,1.154-.583,2.922-.742A4.753,4.753,0,0,0,5.027,4.7a2.118,2.118,0,0,0,.329-.245A4.7,4.7,0,0,0,6.3,2.684Z" transform="translate(0.991 1)" fill="#faaf19" stroke="#faaf19" stroke-width="2"/></svg>