<svg xmlns="http://www.w3.org/2000/svg" xmlns:xlink="http://www.w3.org/1999/xlink" width="1366" height="650" viewBox="0 0 1366 650"><defs><clipPath id="a"><rect width="1366" height="650" transform="translate(0 3313)" fill="#fbfbfb"/></clipPath></defs><g transform="translate(0 -3313)" opacity="0.1" clip-path="url(#a)"><g transform="translate(-716.58 3171.22)"><path d="M1048.244,1379.783c21.844,27.523,51.411,33.415,77,32.766s60.825-12.411,77.385-48.852c19.659-43.256-8.389-73.69-28.882-80.5-28.526-9.485-42.271,7.8-58.2,25.138-13.292,14.468-34.376,24.128-61.78,23.35C1033.332,1331.1,1028.028,1354.312,1048.244,1379.783Z" transform="translate(833.963 -594.513)" fill="#8ddfbe"/><circle cx="13.762" cy="13.762" r="13.762" transform="translate(1081.778 735.966)" fill="#ffb4c4"/><path d="M1243.109,716.092c26.44,12.156,49.929,52.534,43.286,78.427s14.7,34.772,26.167,31.2c20.561-6.4,42.892-39.809,37.46-94.763-7.113-71.936-51.413-110.231-89.288-123.394-29.9-10.391-70.858,1.8-76.191,38.495C1178.352,688.676,1225.988,708.22,1243.109,716.092Z" transform="matrix(0.995, 0.105, -0.105, 0.995, 857.549, -547.564)" fill="#ffb4c4"/><path d="M466.241,693.2c-35.835,8.689-59.541,29.922-75.044,53.925-16.227,25.125-24.468,70.54-1.693,113.138,25.47,47.637,75.2,46.647,91.925,29.657,21.074-21.408,13.627-42.657,8.9-76.423-3.89-27.781-1.526-45.608,14.511-79.831C515.073,711.831,495.52,686.1,466.241,693.2Z" transform="translate(480.794 -546.617) rotate(14)" fill="#0097ff"/><path d="M34.762,0A34.762,34.762,0,1,1,0,34.762,34.762,34.762,0,0,1,34.762,0Z" transform="translate(1049.309 115.477)" fill="#545afa"/></g></g></svg>